<?xml version="1.0" standalone="no"?>
<!DOCTYPE svg PUBLIC "-//W3C//DTD SVG 20010904//EN"
 "http://www.w3.org/TR/2001/REC-SVG-20010904/DTD/svg10.dtd">
<svg version="1.0" xmlns="http://www.w3.org/2000/svg"
 width="141.000000pt" height="141.000000pt" viewBox="0 0 141.000000 141.000000"
 preserveAspectRatio="xMidYMid meet">
<metadata>
Created by potrace 1.14, written by Peter Selinger 2001-2017
</metadata>
<g transform="translate(0.000000,141.000000) scale(0.100000,-0.100000)"
fill="#000000" stroke="none">
<path d="M369 1286 c-1 -1 -2 -271 -3 -602 l-1 -601 159 1 159 1 0 203 c0 141
4 201 11 199 6 -2 12 -14 14 -28 2 -13 6 -31 9 -39 3 -8 7 -24 9 -35 1 -11 9
-46 17 -77 8 -32 12 -60 9 -63 -3 -3 -1 -5 5 -5 6 0 13 -15 16 -32 11 -70 19
-103 28 -114 13 -16 321 -13 327 4 2 6 0 12 -5 12 -5 0 -9 8 -10 18 -3 37 -10
68 -20 87 -6 11 -11 23 -11 28 -1 4 -8 33 -18 65 -9 31 -18 64 -19 72 -1 8 -7
28 -14 43 -6 16 -9 33 -5 38 3 5 1 9 -4 9 -5 0 -13 15 -17 33 -4 17 -10 39
-12 47 -2 8 -5 24 -6 35 -1 11 -6 23 -12 27 -5 4 -10 15 -11 25 0 10 -3 25 -6
33 -21 63 -24 79 -17 93 5 8 11 25 13 38 3 13 5 26 6 29 2 3 2 8 1 13 0 4 3 7
8 7 8 0 14 20 23 75 2 11 5 22 8 25 5 5 43 116 46 133 1 4 3 9 4 12 1 3 3 8 5
13 1 4 5 15 8 25 25 66 22 54 31 100 5 20 13 37 20 37 6 0 4 4 -4 9 -8 4 -78
7 -155 7 l-139 -1 -18 -49 c-9 -27 -15 -53 -12 -58 3 -4 0 -8 -5 -8 -6 0 -11
-11 -11 -24 0 -14 -5 -28 -10 -31 -6 -4 -8 -10 -5 -15 3 -5 -1 -23 -10 -40 -8
-16 -15 -32 -15 -35 0 -13 -5 -38 -12 -55 -4 -8 -9 -27 -12 -42 -15 -69 -23
-13 -23 165 l0 192 -156 1 c-86 0 -158 0 -158 0z"/>
</g>
</svg>
